<svg width="27" height="27" viewBox="0 0 27 27" fill="none" xmlns="http://www.w3.org/2000/svg">
<rect x="1.25" y="1.25" width="24.5" height="24.5" rx="6.75" stroke="white" stroke-width="2.5"/>
<path d="M17.8624 12.3348C17.2011 11.5704 16.1005 10.9042 15.0423 10.9388C13.8016 10.9812 12.754 11.2095 11.963 11.8863H11.9259V7H9V19.7903H11.9233V19.1693H11.9603C12.5899 19.6497 13.4392 20 14.6058 20C15.8942 20 17.0767 19.6311 17.8466 18.7605C18.619 17.89 19 17.0645 19 15.6233C19 14.2962 18.5185 13.0992 17.8598 12.3348H17.8624ZM15.3571 17.1043C14.955 17.5078 14.4735 17.7095 13.9074 17.7095C13.3413 17.7095 12.8783 17.5078 12.4815 17.1043C12.0873 16.7009 11.8889 16.2125 11.8889 15.6392C11.8889 15.0659 12.0873 14.5776 12.4815 14.1742C12.8757 13.7707 13.3519 13.569 13.9074 13.569C14.463 13.569 14.9524 13.7707 15.3571 14.1742C15.7593 14.5776 15.9603 15.0659 15.9603 15.6392C15.9603 16.2125 15.7593 16.7009 15.3571 17.1043Z" fill="white"/>
</svg>
