<svg width="27" height="27" viewBox="0 0 27 27" fill="none" xmlns="http://www.w3.org/2000/svg">
<rect x="1.25" y="1.25" width="24.5" height="24.5" rx="6.75" stroke="white" stroke-width="2.5"/>
<path d="M18.8387 10.719C18.9424 10.4842 19 10.2257 19 9.95279C19 8.87405 18.0931 7.99837 16.9722 7.99837H10.0657C8.94645 7.99995 8.03787 8.87405 8.03787 9.95438C8.03787 11.0347 8.9448 11.9088 10.0657 11.9088H12.2302L8.59256 15.4131C8.08561 15.9017 7.90455 16.5839 8.04775 17.2121C8.13498 18.2131 9.00406 19 10.0657 19H16.9738C18.0931 19 19.0017 18.1259 19.0017 17.0455C19.0017 15.9652 18.0947 15.0911 16.9738 15.0911H14.6596L18.3252 11.5582C18.577 11.3155 18.7482 11.0252 18.8387 10.719Z" fill="white"/>
</svg>
